<svg xmlns="http://www.w3.org/2000/svg" version="1.1" xmlns:xlink="http://www.w3.org/1999/xlink" width="512" height="512" x="0" y="0" viewBox="0 0 512 512" style="enable-background:new 0 0 512 512" xml:space="preserve" class=""><g><path fill="#4f5659" d="M272 72a8 8 0 0 1-8-8V48a8 8 0 0 0-16 0v16a8 8 0 0 1-16 0V48a24 24 0 0 1 48 0v16a8 8 0 0 1-8 8zM400 104a8 8 0 0 1-8-8V80a8 8 0 0 0-16 0v16a8 8 0 0 1-16 0V80a24 24 0 0 1 48 0v16a8 8 0 0 1-8 8z" opacity="1" data-original="#4f5659" class=""></path><path fill="#ef9368" d="M440 168H328l8-80h96z" opacity="1" data-original="#f7b030" class=""></path><path fill="#fcb695" d="M408 168H296l8-80h96z" opacity="1" data-original="#ffd33a" class=""></path><path fill="#4f5659" d="M368 120a8 8 0 0 1-8-8V80a8 8 0 0 0-16 0v32a8 8 0 0 1-16 0V80a24 24 0 0 1 48 0v32a8 8 0 0 1-8 8z" opacity="1" data-original="#4f5659" class=""></path><path fill="#2c8574" d="M312 152H200l8-96h96z" opacity="1" data-original="#c7312e" class=""></path><path fill="#9aa3a8" d="m144 152 48 160 256-16 32-144z" opacity="1" data-original="#9aa3a8" class=""></path><path fill="#3eab96" d="M280 152H168l8-96h96z" opacity="1" data-original="#eb423f" class=""></path><path fill="#4f5659" d="M240 88a8 8 0 0 1-8-8V48a8 8 0 0 0-16 0v32a8 8 0 0 1-16 0V48a24 24 0 0 1 48 0v32a8 8 0 0 1-8 8z" opacity="1" data-original="#4f5659" class=""></path><circle cx="192" cy="440" r="48" fill="#4f5659" opacity="1" data-original="#4f5659" class=""></circle><circle cx="192" cy="440" r="16" fill="#e9eef2" opacity="1" data-original="#e9eef2" class=""></circle><circle cx="440" cy="440" r="48" fill="#4f5659" opacity="1" data-original="#4f5659" class=""></circle><circle cx="440" cy="440" r="16" fill="#e9eef2" opacity="1" data-original="#e9eef2" class=""></circle><path fill="#e9eef2" d="M486.24 146.994A8 8 0 0 0 480 144H160a8 8 0 0 0 0 16h49.509l6.737 32H168a8 8 0 0 0 0 16h51.614l10.106 48H192a8 8 0 0 0 0 16h41.088l6.293 29.89-31.913 2.128a8 8 0 0 0 .524 15.982c.179 0 .36-.006.54-.018l240-16a8 8 0 0 0 7.278-6.247l32-144a8 8 0 0 0-1.57-6.741zM462.916 192h-39.61l7.111-32h39.61zm-14.23 64.035A7.778 7.778 0 0 0 448 256h-38.916l10.667-48h39.61zm-96.455 38.332L354.716 272h34.422l-4.49 20.206zm-48.858 3.257L300.676 272h37.941l-2.568 23.116c-.013.111-.012.22-.02.331zM414.027 160l-7.111 32h-43.311l3.555-32zm-66.521 32h-55.251l-3.369-32h62.176zm-1.778 16-5.328 48H299l-5.053-48zm10.766 48 5.333-48h41.533l-10.666 48zm-130.635-96H272.8l3.368 32H232.6zm10.106 48h41.885l5.053 48H246.07zm13.473 64h35.149l2.81 26.689-31.892 2.126zm151.847 19.1 4.244-19.1h39.609l-3.648 16.416z" opacity="1" data-original="#e9eef2" class=""></path><path fill="#dadcde" d="M208 360v-48L139.282 67.668A16 16 0 0 0 123.879 56H40a16 16 0 0 0-16 16 16 16 0 0 0 16 16h59.931a16 16 0 0 1 15.385 11.6L176 312v80h296a16 16 0 0 0 16-16 16 16 0 0 0-16-16z" opacity="1" data-original="#dadcde" class=""></path><path fill="#3eab96" d="M88 56v32H40a16 16 0 0 1 0-32z" opacity="1" data-original="#eb423f" class=""></path></g></svg>